<svg width="44" height="44" viewBox="0 0 44 44" fill="none" xmlns="http://www.w3.org/2000/svg"><circle cx="22" cy="22" r="22" fill="#FF6868"/><path d="M9.668 16.767H6.747v12.567H9.07v-8.8h.035l3.098 8.8h2.886V16.767h-2.323v8.607h-.035l-3.063-8.607zm14.207 0h-7.022v12.567h7.198v-2.077h-4.664v-3.38h4.224v-2.076h-4.224v-2.957h4.488v-2.077zm.712 0l2.288 12.567h2.834l1.408-9.117h.035l1.408 9.117h2.834l2.288-12.567h-2.43l-1.39 9.293h-.035l-1.478-9.293h-2.43l-1.477 9.293h-.036l-1.39-9.293h-2.429z" fill="#fff"/></svg>