<svg width="12" height="13" viewBox="0 0 12 13" fill="none" xmlns="http://www.w3.org/2000/svg">
<path d="M1.64886 11.7923C1.09863 11.8992 0.548889 12.006 0 12.1129C0.0681763 11.6657 0.136658 11.2181 0.205139 10.7706L0.246338 10.5019C0.315369 10.0507 0.384277 9.59961 0.452637 9.14902C0.464844 9.06531 0.477905 8.98074 0.490967 8.89618C0.500244 8.83652 0.50946 8.77682 0.518372 8.71747L0.871765 8.34879C1.01508 8.19943 1.15839 8.05008 1.3009 7.90073C1.64423 7.54199 1.98834 7.18414 2.33246 6.82626C2.67969 6.46515 3.02698 6.10403 3.37335 5.74207L5.88373 3.12827C6.06769 2.93643 6.25171 2.74481 6.43567 2.55331L9.08368 5.20135C8.97229 5.31717 8.86084 5.43301 8.74927 5.54898L6.2182 8.18347C5.96838 8.44388 5.7182 8.70428 5.46783 8.96484L5.45831 8.97482C4.97925 9.47345 4.49969 9.9726 4.02161 10.4731L3.30438 11.2214C3.27032 11.2566 3.23468 11.2914 3.19879 11.3264C3.15906 11.3652 3.11902 11.4044 3.08044 11.4445C3.05383 11.4722 3.02795 11.5004 3.0033 11.5294L1.64886 11.7923Z" fill="#C4C4C4"/>
<path d="M9.77692 4.48035C10.1324 4.11038 10.4874 3.74045 10.8424 3.36963L10.9022 3.30698C10.9982 3.20639 11.094 3.10617 11.1897 3.00616C11.2883 2.90305 11.3869 2.80017 11.4856 2.69742C11.4368 2.64655 11.3879 2.59576 11.3389 2.5455C10.8887 2.0762 10.4384 1.60776 9.98816 1.13931C9.62329 0.759705 9.25842 0.380096 8.89355 0C8.85376 0.0391235 8.81433 0.0780945 8.77686 0.117889C8.72253 0.173767 8.66833 0.229828 8.61426 0.28598C8.54797 0.354828 8.48187 0.423828 8.41571 0.492828L8.40967 0.499146C8.29211 0.621765 8.17456 0.744415 8.05615 0.86618C7.74701 1.1886 7.43781 1.51041 7.12866 1.83209L9.77692 4.48035Z" fill="#C4C4C4"/>
</svg>
