<svg width="44" height="44" viewBox="0 0 44 44" fill="none" xmlns="http://www.w3.org/2000/svg"><circle cx="22" cy="22" r="22" fill="#D4040A"/><path d="M28.455 21.116c-.561-.864-1.355-1.471-2.15-2.102-.84-.678-1.612-1.425-2.243-2.29-.023-.047-.07-.093-.093-.14-1.075-1.542-1.729-3.832-.724-5.584-.07.117-.491.234-.608.304-.303.14-.63.28-.934.467a9.308 9.308 0 0 0-1.8 1.355c-1.565 1.449-2.733 3.318-2.826 5.49-.024.818-.024 1.683.116 2.5.14.795.631 1.472.444 2.313-.023.117-.093.257-.21.304-.093.023-.187-.023-.28-.07-1.612-.864-2.477-3.575-1.893-5.257-.607 1.753-1.682 3.201-1.962 5.07a6.627 6.627 0 0 0 .327 3.435 7.876 7.876 0 0 0 1.822 2.78c.841.84 1.87 1.542 2.944 2.056.187.093.397.187.607.257.234.07.468.14.725.187 1.261.233 2.593.257 3.855.023a7.798 7.798 0 0 0 2.827-1.121 8.027 8.027 0 0 0 2.5-2.664c1.308-2.22.91-5.21-.444-7.313z" fill="#fff"/></svg>