<svg width="40" height="40" viewBox="0 0 40 40" fill="none" stroke="#D1D0D0" xmlns="http://www.w3.org/2000/svg"><circle cx="20" cy="20" r="19.5"/><path d="M29.205 13.915l-1.14 1.29 1.654-.479c.154-.044.306-.094.458-.147a7.831 7.831 0 0 1-1.453 1.428l-.207.156.008.259c.003.113.005.227.005.34 0 2.701-1.044 5.443-2.866 7.514-1.456 1.654-4.063 3.627-8.255 3.627a11.06 11.06 0 0 1-5.356-1.38c.072.002.145.002.217.002a8.09 8.09 0 0 0 4.326-1.237l1.027-.645-1.183-.266a3.794 3.794 0 0 1-2.68-2.274l.07.008.306-.927a3.82 3.82 0 0 1-1.85-3.027c.124.058.252.11.382.154l1.73.601-1.185-1.397a3.811 3.811 0 0 1-.51-4.149 11.486 11.486 0 0 0 7.718 3.989l.618.054-.079-.616a3.802 3.802 0 0 1 3.762-4.293c.991 0 1.95.393 2.656 1.084l.194.19.264-.059a8.093 8.093 0 0 0 1.964-.709 3.79 3.79 0 0 1-.595.91zm-15.746 8.142z"/></svg>