<svg width="44" height="44" viewBox="0 0 44 44" fill="none" xmlns="http://www.w3.org/2000/svg">
<circle cx="22" cy="22" r="22" fill="#FF9141"/>
<path d="M30.8631 18.5688C30.8327 18.5688 30.8327 18.5688 30.8022 18.5688H26.4169C26.1428 18.5688 25.9601 18.3556 25.9601 18.112V14.0008C25.9601 12.1431 24.0111 12.0518 23.067 12.1127C22.7929 12.1431 22.6102 12.3563 22.6407 12.6304C22.9148 17.9598 20.2348 19.6652 18.834 20.1829C18.3467 20.3656 18.0422 20.8224 18.0422 21.3401V28.0094C18.0422 30.4457 20.4785 30.4457 20.4785 30.4457H29.0055C30.2236 30.4457 31.4418 29.5321 31.2286 28.6794C31.1677 28.4358 31.2286 28.1922 31.3199 27.979L31.6854 27.309C31.8377 27.0045 31.8681 26.6695 31.6854 26.3649C31.5331 26.0604 31.5331 25.695 31.7158 25.3904L32.2031 24.5986C32.3554 24.3855 32.3858 24.1114 32.3249 23.8678L32.1422 23.0455C32.0508 22.7105 32.1727 22.3755 32.3858 22.1319L32.6904 21.8274C32.8426 21.6751 32.934 21.4619 32.9644 21.2487C33.2994 18.9952 31.1677 18.6297 30.8631 18.5688Z" fill="white"/>
<path d="M16.3672 19.7871H14.2659C13.6568 19.7871 13.2 20.2744 13.2 20.853V29.3495C13.2 29.9586 13.6873 30.4154 14.2659 30.4154H16.3672C16.9763 30.4154 17.4331 29.9282 17.4331 29.3495V20.853C17.4331 20.2744 16.9458 19.7871 16.3672 19.7871Z" fill="white"/>
</svg>
