<svg width="16" height="16" viewBox="0 0 16 16" fill="#2ABA90" xmlns="http://www.w3.org/2000/svg">
<circle cx="8" cy="8" r="8"/>
<path fill-rule="evenodd" clip-rule="evenodd" d="M5.05186 5.87411C5.14207 5.55743 5.66079 5.10504 5.66079 5.10504C5.66079 5.10504 5.88632 4.92409 6.1795 5.03719C6.49525 5.12766 6.67567 5.44434 6.9012 6.00982C7.14928 6.59793 7.14928 6.57531 7.03652 6.77889C6.9463 6.98246 6.60801 7.34437 6.60801 7.34437C6.74333 7.72891 8.29948 9.26703 8.68288 9.40275C8.68288 9.40275 9.04373 9.08607 9.22415 8.97298C9.42713 8.85988 9.42713 8.8825 9.99095 9.10869C10.5773 9.33489 10.8705 9.51584 10.9833 9.83252C11.0735 10.1492 10.8931 10.3754 10.8931 10.3754C10.8931 10.3754 10.4646 10.8956 10.1263 10.9861C8.34459 11.5064 4.51059 7.68367 5.05186 5.87411Z" fill="#F8F8F8"/>
</svg>
