<svg width="40" height="40" viewBox="0 0 40 40" fill="none" stroke="#D1D0D0" xmlns="http://www.w3.org/2000/svg">
<circle cx="20" cy="20" r="19.5" />
<path d="M17.2382 20.6182V20.1182H16.7382H14.5V16.8367H16.8571H17.3571V16.3367V13.6801V13.6371L17.3497 13.5946C17.3112 13.3726 17.1225 11.93 18.4404 10.7153C19.657 9.59412 21.2161 9.5 21.6703 9.5C21.7281 9.5 21.7645 9.50143 21.7762 9.502L21.7884 9.5026H21.8007H24.5V12.5329H24.4975H24.4942H24.4909H24.4876H24.4842H24.4808H24.4774H24.4739H24.4704H24.4669H24.4634H24.4598H24.4562H24.4526H24.4489H24.4453H24.4416H24.4378H24.4341H24.4303H24.4265H24.4226H24.4187H24.4148H24.4109H24.407H24.403H24.399H24.395H24.3909H24.3869H24.3828H24.3786H24.3745H24.3703H24.3661H24.3619H24.3576H24.3534H24.3491H24.3448H24.3404H24.3361H24.3317H24.3273H24.3228H24.3184H24.3139H24.3094H24.3049H24.3003H24.2958H24.2912H24.2866H24.282H24.2773H24.2727H24.268H24.2633H24.2585H24.2538H24.249H24.2442H24.2394H24.2346H24.2297H24.2249H24.22H24.2151H24.2102H24.2052H24.2003H24.1953H24.1903H24.1853H24.1803H24.1752H24.1702H24.1651H24.16H24.1549H24.1497H24.1446H24.1394H24.1343H24.1291H24.1239H24.1186H24.1134H24.1081H24.1029H24.0976H24.0923H24.087H24.0816H24.0763H24.071H24.0656H24.0602H24.0548H24.0494H24.044H24.0385H24.0331H24.0276H24.0222H24.0167H24.0112H24.0057H24.0002H23.9946H23.9891H23.9835H23.978H23.9724H23.9668H23.9612H23.9556H23.95H23.9444H23.9387H23.9331H23.9274H23.9218H23.9161H23.9104H23.9047H23.899H23.8933H23.8876H23.8819H23.8762H23.8704H23.8647H23.8589H23.8532H23.8474H23.8416H23.8358H23.8301H23.8243H23.8185H23.8127H23.8069H23.801H23.7952H23.7894H23.7835H23.7777H23.7719H23.766H23.7602H23.7543H23.7485H23.7426H23.7367H23.7309H23.725H23.7191H23.7132H23.7073H23.7014H23.6956H23.6897H23.6838H23.6779H23.672H23.6661H23.6602H23.6543H23.6484H23.6425H23.6366H23.6307H23.6247H23.6188H23.6129H23.607H23.6011H23.5952H23.5893H23.5834H23.5775H23.5716H23.5657H23.5598H23.5539H23.548H23.5421H23.5362H23.5303H23.5244H23.5185H23.5127H23.5068H23.5009H23.495H23.4892H23.4833H23.4774H23.4716H23.4657H23.4599H23.454H23.4482H23.4423H23.4365H23.4307H23.4248H23.419H23.4132H23.4074H23.4016H23.3958H23.39H23.3843H23.3785H23.3727H23.367H23.3612H23.3555H23.3497H23.344H23.3383H23.3326H23.3269H23.3212H23.3155H23.3098H23.3041H23.2985H23.2928H23.2872H23.2815H23.2759H23.2703H23.2647H23.2591H23.2535H23.2479H23.2424H23.2368H23.2313H23.2258H23.2202H23.2147H23.2092H23.2038H23.1983H23.1928H23.1874H23.182H23.1765H23.1711H23.1657H23.1604H23.155H23.1496H23.1443H23.139H23.1337H23.1284H23.1231H23.1178H23.1126H23.1073H23.1021H23.0969H23.0917H23.0865H23.0814H23.0762H23.0711H23.066H23.0609H23.0558H23.0508H23.0457H23.0407H23.0357H23.0307H23.0257H23.0208H23.0158H23.0109H23.006H23.0011H22.9963H22.9914H22.9866H22.9818H22.977H22.9723H22.9675H22.9628H22.9581H22.9534H22.9487H22.9441H22.9395H22.9349H22.9303H22.9257H22.9212H22.9167H22.9122H22.9077H22.9032H22.8988H22.8944H22.89H22.8857H22.8813H22.877H22.8727H22.8685H22.8642H22.86H22.8558H22.8516H22.8475H22.8434H22.8393H22.8352H22.8312H22.8271H22.8231H22.8192H22.8152H22.8113H22.8074H22.8036H22.7997H22.7959H22.7921H22.7884H22.7846H22.7809H22.7772H22.7736H22.77H22.7664H22.7628H22.7593H22.7558H22.7523H22.7488H22.7454H22.742H22.7387H22.7353H22.732H22.7288H22.7255H22.7223H22.7191H22.716H22.7129H22.7098H22.7067H22.7037H22.7007H22.6977H22.6948H22.6919H22.689H22.6862H22.6834H22.6806H22.6779H22.6752H22.6725H22.6698H22.6672H22.6647H22.6621H22.6596H22.6572H22.6547H22.6523H22.65H22.6476H22.6453H22.6431H22.6408H22.6387H22.6365H22.6344H22.6323H22.6302H22.6282H22.6263H22.6243H22.6224H22.6206H22.6187H22.617H22.6152H22.6135H22.6118H22.6102H22.6086H22.607H22.6055H22.604H22.6026H22.6012H22.5998H22.5985H22.5972H22.596H22.5948H22.5936H22.5925H22.5914H22.5903H22.5893H22.5884H22.5874H22.5866H22.5857H22.5849H22.5842H22.5835H22.5828H22.5822C22.1474 12.5329 21.7292 12.6365 21.4197 12.9284C21.1049 13.2254 20.988 13.636 20.988 14.065V16.3368V16.8368H21.488H24.4819L24.0992 20.1646H21.4879H20.9879V20.6646V30.3142H17.2382V20.6182ZM24.6488 12.681L24.6488 12.5329C24.6488 12.5329 24.6488 12.5329 24.6488 12.5329V12.681V13.0329L24.6488 12.681Z" stroke="#D1D0D0"/>
</svg>
