<svg width="44" height="44" viewBox="0 0 44 44" fill="none" xmlns="http://www.w3.org/2000/svg">
<circle cx="22" cy="22" r="22" fill="#FF6868"/>
<path d="M9.66818 16.7671H6.74658V29.3335H9.06978V20.5335H9.10498L12.2026 29.3335H15.089V16.7671H12.7658V25.3735H12.7306L9.66818 16.7671Z" fill="white"/>
<path d="M23.8752 16.7671H16.8528V29.3335H24.0512V27.2567H19.3872V23.8775H23.6112V21.8007H19.3872V18.8439H23.8752V16.7671Z" fill="white"/>
<path d="M24.5871 16.7671L26.8751 29.3335H29.7087L31.1167 20.2167H31.1519L32.5599 29.3335H35.3935L37.6815 16.7671H35.2527L33.8623 26.0599H33.8271L32.3487 16.7671H29.9199L28.4415 26.0599H28.4063L27.0159 16.7671H24.5871Z" fill="white"/>
</svg>
