<svg width="44" height="44" viewBox="0 0 44 44" fill="none" xmlns="http://www.w3.org/2000/svg">
<circle cx="22" cy="22" r="22" fill="#D4040A"/>
<path d="M28.4547 21.1164C27.894 20.252 27.0996 19.6445 26.3053 19.0137C25.4642 18.3361 24.6932 17.5885 24.0624 16.7241C24.039 16.6773 23.9923 16.6306 23.9689 16.5839C22.8942 15.0419 22.24 12.7523 23.2447 11C23.1746 11.1168 22.754 11.2336 22.6372 11.3037C22.3335 11.4439 22.0064 11.5841 21.7027 11.771C21.0485 12.1448 20.441 12.6121 19.9037 13.1261C18.3383 14.5746 17.1701 16.4437 17.0767 18.6165C17.0533 19.4342 17.0533 20.2987 17.1935 21.1164C17.3337 21.9108 17.8243 22.5883 17.6374 23.4294C17.6141 23.5462 17.544 23.6864 17.4271 23.7331C17.3337 23.7565 17.2402 23.7098 17.1468 23.663C15.5347 22.7986 14.6703 20.0884 15.2543 18.4062C14.6469 20.1585 13.5722 21.607 13.2918 23.4761C13.1049 24.6209 13.1983 25.8125 13.6189 26.9106C14.0161 27.9619 14.6469 28.8965 15.4412 29.6908C16.2823 30.5319 17.3103 31.2328 18.385 31.7468C18.572 31.8403 18.7822 31.9337 18.9925 32.0038C19.2261 32.0739 19.4598 32.144 19.7168 32.1907C20.9784 32.4243 22.3101 32.4477 23.5717 32.2141C24.5764 32.0272 25.5343 31.6533 26.3987 31.0926C27.4267 30.4151 28.2678 29.5039 28.8986 28.4292C30.207 26.2096 29.8098 23.2191 28.4547 21.1164Z" fill="white"/>
</svg>
