<svg width="44" height="44" viewBox="0 0 44 44" fill="none" xmlns="http://www.w3.org/2000/svg">
<circle cx="22" cy="22" r="22" fill="#8FDB6B"/>
<path d="M15.8789 17.5156C15.8789 16.6367 16.1654 15.9271 16.7383 15.3867C17.3112 14.8464 18.0794 14.5762 19.043 14.5762C20.0195 14.5762 20.791 14.8464 21.3574 15.3867C21.9238 15.9206 22.207 16.6465 22.207 17.5645V18.2676C22.207 19.1465 21.9238 19.8529 21.3574 20.3867C20.791 20.9206 20.026 21.1875 19.0625 21.1875C18.1055 21.1875 17.334 20.9238 16.748 20.3965C16.1686 19.8626 15.8789 19.1335 15.8789 18.209V17.5156ZM17.998 18.2676C17.998 18.6061 18.0924 18.8828 18.2812 19.0977C18.4701 19.306 18.7305 19.4102 19.0625 19.4102C19.7461 19.4102 20.0879 18.974 20.0879 18.1016V17.5156C20.0879 17.1771 19.9967 16.9004 19.8145 16.6855C19.6322 16.4642 19.375 16.3535 19.043 16.3535C18.724 16.3535 18.4701 16.4609 18.2812 16.6758C18.0924 16.8841 17.998 17.1706 17.998 17.5352V18.2676ZM22.6367 25.5137C22.6367 24.6283 22.9232 23.9186 23.4961 23.3848C24.0755 22.8509 24.8438 22.584 25.8008 22.584C26.7708 22.584 27.5423 22.8477 28.1152 23.375C28.6882 23.9023 28.9746 24.638 28.9746 25.582V26.2656C28.9746 27.151 28.6914 27.8607 28.125 28.3945C27.5586 28.9284 26.7904 29.1953 25.8203 29.1953C24.8633 29.1953 24.0918 28.9316 23.5059 28.4043C22.9264 27.8704 22.6367 27.1413 22.6367 26.2168V25.5137ZM24.7461 26.2656C24.7461 26.5716 24.8503 26.8418 25.0586 27.0762C25.2669 27.304 25.5208 27.418 25.8203 27.418C26.4518 27.418 26.7936 27.1185 26.8457 26.5195L26.8555 25.5137C26.8555 25.1686 26.7611 24.8919 26.5723 24.6836C26.3835 24.4688 26.1263 24.3613 25.8008 24.3613C25.4883 24.3613 25.2376 24.4622 25.0488 24.6641C24.86 24.8594 24.7591 25.1263 24.7461 25.4648V26.2656ZM19.6875 27.9355L18.1543 27.1641L25.0977 16.0508L26.6309 16.8223L19.6875 27.9355Z" fill="white"/>
</svg>
