<svg width="40" height="40" viewBox="0 0 40 40" fill="none" stroke="#D1D0D0" xmlns="http://www.w3.org/2000/svg">
<circle cx="20" cy="20" r="19.5"/>
<path d="M29.2046 13.9152L28.0658 15.2053L29.7186 14.7264C29.8728 14.6817 30.0255 14.6325 30.1767 14.5787C29.7554 15.1173 29.2687 15.5957 28.7235 16.0072L28.5171 16.163L28.525 16.4215C28.5284 16.5352 28.5301 16.6493 28.5301 16.7623C28.5301 19.4631 27.486 22.2053 25.6641 24.2759L25.6641 24.2759C24.2084 25.9302 21.6015 27.9033 17.4095 27.9033C15.5286 27.9033 13.6916 27.428 12.0528 26.5226C12.1252 26.5245 12.1976 26.5254 12.2698 26.5254C13.8204 26.5254 15.3011 26.1004 16.5957 25.2881L17.6231 24.6435L16.4398 24.3768C15.2392 24.1063 14.231 23.2629 13.7603 22.1033C13.7833 22.106 13.8063 22.1085 13.8294 22.1108L14.1356 21.1841C13.0786 20.5526 12.3662 19.4252 12.2852 18.1569C12.4101 18.2148 12.5379 18.2664 12.6678 18.3114L14.3988 18.912L13.2128 17.5154C12.6365 16.8367 12.3099 15.9679 12.3099 15.0512C12.3099 14.4645 12.4451 13.8871 12.702 13.3664C14.6558 15.6571 17.4356 17.0921 20.4207 17.3547L21.039 17.409L20.9605 16.7933C20.9398 16.6312 20.9293 16.4666 20.9293 16.3009C20.9293 14.2047 22.6324 12.5 24.7228 12.5C25.7131 12.5 26.6726 12.8934 27.3783 13.5842L27.5716 13.7734L27.8358 13.7151C28.5196 13.5642 29.1778 13.3265 29.7996 13.0063C29.6457 13.3369 29.4451 13.6428 29.2046 13.9152ZM13.4585 22.0569L13.4585 22.0569C13.4585 22.0569 13.4585 22.0569 13.4585 22.0569Z" stroke="#D1D0D0"/>
</svg>
