<svg width="40" height="40" viewBox="0 0 40 40" fill="none" stroke="#D1D0D0" xmlns="http://www.w3.org/2000/svg">
<circle cx="20" cy="20" r="19.5"/>
<path d="M25.2187 26.029C25.5831 26.0393 25.9474 26.0444 26.3118 26.0444C26.75 26.0448 27.1878 26.0367 27.6251 26.0201C28.0218 26.0081 28.4135 25.9296 28.7835 25.7882C28.9221 25.7367 29.0485 25.6578 29.1549 25.5563C29.2614 25.4548 29.3456 25.3329 29.4024 25.198C29.458 25.05 29.4823 24.8923 29.4738 24.7347C29.4652 24.5771 29.424 24.4229 29.3528 24.2815C29.2288 24.0168 29.0813 23.7635 28.9121 23.5244C28.4057 22.8316 27.8192 22.1994 27.1645 21.6405C26.9031 21.4177 26.6582 21.1766 26.4319 20.9191C26.3676 20.8444 26.3245 20.7542 26.3072 20.6578C26.343 20.5596 26.3968 20.4689 26.4661 20.3901C26.7162 20.0511 26.972 19.7158 27.2278 19.3819L27.2561 19.3449C27.4534 19.0871 27.65 18.8303 27.8442 18.5699L27.9725 18.3983C28.4643 17.74 28.9733 17.0586 29.2902 16.2462C29.4206 15.9571 29.4739 15.6399 29.4453 15.3247C29.3884 14.9091 29.0363 14.4681 28.2165 14.4681H28.2029L26.9657 14.4808C26.3564 14.4898 25.7472 14.4974 25.138 14.4974C25.1196 14.4974 25.1022 14.4976 25.0848 14.4977C25.0499 14.498 25.015 14.4983 24.9732 14.4974C24.4466 14.4974 24.0745 14.7396 23.8348 15.2393L23.6113 15.7045C23.309 16.3352 23.0064 16.9666 22.6699 17.5808C22.36 18.187 21.948 18.737 21.4515 19.2072C21.3659 18.8073 21.3398 18.3972 21.3739 17.9899L21.3823 17.6661C21.3859 17.4113 21.4006 17.1565 21.4153 16.9007L21.4178 16.858C21.4424 16.4386 21.4663 16.0206 21.4514 15.6025C21.4294 14.997 21.2731 14.3469 20.2814 14.1201C19.8939 14.0281 19.4955 13.9887 19.0971 14.0028C18.358 14.0104 17.6177 14.0385 16.8824 14.0946C16.6544 14.1053 16.4313 14.1645 16.2286 14.2681C16.0259 14.3717 15.8483 14.5173 15.7079 14.695C15.6228 14.7965 15.5604 14.9146 15.5247 15.0416C15.4891 15.1685 15.4811 15.3015 15.5012 15.4317C15.5761 15.7351 15.8823 15.8804 16.1233 15.9467C16.449 16.0397 16.4884 16.1697 16.5064 16.2309C16.5615 16.4398 16.594 16.6539 16.6034 16.8695C16.6235 17.1639 16.6278 17.4592 16.6163 17.7541C16.6105 17.9083 16.6105 18.0638 16.6111 18.2181C16.6309 18.5695 16.5996 18.9219 16.5181 19.2645C16.5167 19.2683 16.5156 19.2721 16.5148 19.276C16.4154 19.1978 16.3261 19.1079 16.2487 19.0084C16.071 18.7878 15.8998 18.5598 15.7402 18.3239C15.1215 17.401 14.5971 16.4198 14.1748 15.3948C13.9125 14.7651 13.3924 14.4222 12.7296 14.463C12.4556 14.4694 12.183 14.4681 11.911 14.4668L10.6725 14.463C10.6395 14.4627 10.6065 14.4623 10.5734 14.4618C10.44 14.46 10.3059 14.4581 10.1718 14.4694C9.53413 14.514 9.24728 14.788 9.11936 15.0098C8.99983 15.2163 8.90995 15.5643 9.15682 16.0525L9.66204 17.0607C9.67465 17.086 9.68725 17.1112 9.69985 17.1365C10.135 18.0086 10.5704 18.8814 11.0388 19.7362C11.6147 20.828 12.3072 21.8561 13.1043 22.803C13.5538 23.3198 14.0292 23.8141 14.5289 24.2841C15.0874 24.7958 15.7418 25.195 16.4554 25.4593C16.9932 25.6768 17.5551 25.8312 18.1294 25.9195C18.6344 25.9788 19.1432 26.001 19.6515 25.9858H20.0495C20.9121 25.9858 21.3753 25.5396 21.4283 24.6193C21.4509 24.2357 21.4722 23.8749 21.6389 23.5792C21.6744 23.5142 21.706 23.4862 21.7371 23.513C21.9364 23.6379 22.1188 23.7873 22.2798 23.9578C22.4581 24.1388 22.6293 24.3249 22.8011 24.5123L22.8187 24.5313C23.0357 24.7671 23.2524 25.0026 23.4814 25.226C24.0106 25.7435 24.5945 26.0137 25.2187 26.029Z" stroke="#D1D0D0"/>
</svg>
