<svg width="44" height="44" viewBox="0 0 44 44" fill="none" xmlns="http://www.w3.org/2000/svg"><circle cx="22" cy="22" r="22" fill="#FF9141"/><path d="M30.863 18.569h-4.446a.448.448 0 0 1-.457-.457v-4.111c0-1.858-1.949-1.95-2.893-1.888-.274.03-.457.243-.426.517.274 5.33-2.406 7.035-3.807 7.553a1.22 1.22 0 0 0-.792 1.157v6.67c0 2.436 2.436 2.436 2.436 2.436h8.527c1.219 0 2.437-.914 2.224-1.767-.061-.243 0-.487.09-.7l.366-.67c.153-.305.183-.64 0-.944a1.009 1.009 0 0 1 .03-.975l.488-.791a.89.89 0 0 0 .122-.731l-.183-.822c-.091-.335.03-.67.244-.914l.304-.305a1.03 1.03 0 0 0 .274-.578c.335-2.254-1.796-2.62-2.1-2.68zm-14.496 1.218h-2.101a1.06 1.06 0 0 0-1.066 1.066v8.496c0 .61.487 1.066 1.066 1.066h2.101a1.06 1.06 0 0 0 1.066-1.066v-8.496a1.08 1.08 0 0 0-1.066-1.066z" fill="#fff"/></svg>