<svg width="16" height="16" viewBox="0 0 16 16" fill="#2ABA90" xmlns="http://www.w3.org/2000/svg"><circle cx="8" cy="8" r="8"/><path fill-rule="evenodd" clip-rule="evenodd" d="M5.052 5.874c.09-.317.609-.769.609-.769s.225-.18.519-.068c.315.09.496.407.721.973.248.588.248.565.136.769-.09.203-.429.565-.429.565.135.385 1.691 1.923 2.075 2.059 0 0 .36-.317.541-.43.203-.113.203-.09.767.136.586.226.88.407.992.724.09.316-.09.542-.09.542s-.428.52-.767.611c-1.781.52-5.615-3.302-5.074-5.112z" fill="#F8F8F8"/></svg>