<svg width="18" height="12" viewBox="0 0 18 12" fill="#2ABA90" xmlns="http://www.w3.org/2000/svg"><path d="M17.407 5.924l-1.646-.327-.771-2.294a2.045 2.045 0 0 0-1.928-1.362H11.75V.756A.766.766 0 0 0 10.98 0H.77A.766.766 0 0 0 0 .756v8.32c0 .428.36.756.771.756h.849C1.62 11.042 2.623 12 3.83 12c1.209 0 2.211-.983 2.211-2.168h5.914c0 1.21 1.003 2.168 2.211 2.168 1.234 0 2.211-.983 2.211-2.168h.849a.766.766 0 0 0 .771-.756v-2.42c.026-.353-.231-.656-.591-.732zM3.83 10.866c-.566 0-1.054-.454-1.054-1.034 0-.555.463-1.034 1.054-1.034a1.033 1.033 0 1 1 0 2.068zm7.92-5.471v-2.32h1.31a.88.88 0 0 1 .823.58l.592 1.74H11.75zm2.442 5.47c-.566 0-1.054-.453-1.054-1.033 0-.555.463-1.034 1.054-1.034.566 0 1.054.454 1.054 1.034a1.066 1.066 0 0 1-1.054 1.034z"/></svg>