<svg width="18" height="20" viewBox="0 0 18 20" fill="#C7C3C3" xmlns="http://www.w3.org/2000/svg"><path d="M16.37 4h-2.889V3a3.06 3.06 0 0 0-.846-2.121A2.835 2.835 0 0 0 10.593 0H6.74c-.765 0-1.5.316-2.042.879A3.06 3.06 0 0 0 3.852 3v1H.963c-.255 0-.5.105-.681.293A1.02 1.02 0 0 0 0 5c0 .265.101.52.282.707.18.188.426.293.681.293h.963v10a4.08 4.08 0 0 0 1.128 2.828A3.78 3.78 0 0 0 5.778 20h5.778a3.78 3.78 0 0 0 2.723-1.172A4.079 4.079 0 0 0 15.407 16V6h.963c.256 0 .5-.105.681-.293A1.02 1.02 0 0 0 17.333 5c0-.265-.101-.52-.282-.707a.945.945 0 0 0-.68-.293zM5.778 3c0-.265.101-.52.282-.707A.945.945 0 0 1 6.74 2h3.853c.255 0 .5.105.68.293.181.187.283.442.283.707v1H5.778V3zm1.926 6v4c0 .265-.102.52-.282.707A.945.945 0 0 1 6.74 14a.945.945 0 0 1-.681-.293A1.02 1.02 0 0 1 5.778 13V9c0-.265.101-.52.282-.707A.945.945 0 0 1 6.74 8c.256 0 .501.105.682.293.18.187.282.442.282.707zm3.852 0v4c0 .265-.102.52-.282.707a.945.945 0 0 1-.681.293.945.945 0 0 1-.681-.293A1.02 1.02 0 0 1 9.63 13V9c0-.265.101-.52.282-.707a.945.945 0 0 1 .68-.293c.256 0 .5.105.681.293.181.187.283.442.283.707z"/></svg>