<svg width="44" height="44" viewBox="0 0 44 44" fill="none" xmlns="http://www.w3.org/2000/svg"><circle cx="22" cy="22" r="22" fill="#127CCE"/><path d="M30.305 19.92l-2.2 1.1a1.1 1.1 0 1 0 .979 1.97l1.375-.693L31.9 24.2h-6.6v-7.7a1.1 1.1 0 0 0-2.2 0v7.7h-4.4a1.1 1.1 0 1 0 0 2.2h15.4a1.1 1.1 0 0 0 .88-1.76l-3.3-4.4a1.1 1.1 0 0 0-1.375-.32zM9.9 26.4h5.5a1.1 1.1 0 0 0 1.1-1.1v-8.8a1.1 1.1 0 0 0-2.2 0v7.7H9.9a1.1 1.1 0 0 0 0 2.2z" fill="#fff"/><path d="M19.448 17.655a1.1 1.1 0 0 0-.693 1.397l1.1 3.3a1.101 1.101 0 0 0 2.09-.692l-1.1-3.3a1.1 1.1 0 0 0-1.397-.704z" fill="#fff"/></svg>