<svg width="44" height="44" viewBox="0 0 44 44" fill="none" xmlns="http://www.w3.org/2000/svg"><circle cx="22" cy="22" r="22" fill="#8FDB6B"/><path d="M15.879 17.516c0-.88.286-1.589.86-2.13.572-.54 1.34-.81 2.304-.81.977 0 1.748.27 2.314.81.567.535.85 1.26.85 2.178v.704c0 .878-.283 1.585-.85 2.119-.566.534-1.331.8-2.294.8-.957 0-1.729-.263-2.315-.79-.58-.534-.87-1.263-.87-2.188v-.693zm2.119.752c0 .338.094.615.283.83.19.208.45.312.782.312.683 0 1.025-.436 1.025-1.308v-.586c0-.339-.091-.616-.274-.83-.182-.222-.439-.332-.771-.332-.319 0-.573.107-.762.322-.189.208-.283.495-.283.86v.732zm4.639 7.246c0-.886.286-1.595.86-2.13.579-.533 1.347-.8 2.304-.8.97 0 1.741.264 2.314.791s.86 1.263.86 2.207v.684c0 .885-.284 1.595-.85 2.129-.566.533-1.335.8-2.305.8-.957 0-1.728-.263-2.314-.79-.58-.535-.87-1.264-.87-2.188v-.703zm2.11.752c0 .306.103.576.312.81a.994.994 0 0 0 .761.342c.632 0 .974-.3 1.026-.898l.01-1.006c0-.345-.095-.622-.284-.83-.188-.215-.446-.323-.771-.323-.313 0-.563.101-.752.303-.189.195-.29.462-.303.8v.802zm-5.06 1.67l-1.533-.772 6.944-11.113 1.533.771-6.944 11.114z" fill="#fff"/></svg>