<svg width="40" height="40" viewBox="0 0 40 40" fill="none" stroke="#D1D0D0" xmlns="http://www.w3.org/2000/svg"><circle cx="20" cy="20" r="19.5"/><path d="M25.219 26.029a38.682 38.682 0 0 0 2.406-.009c.397-.012.788-.09 1.159-.232a1.086 1.086 0 0 0 .618-.59 1.142 1.142 0 0 0-.05-.916 4.935 4.935 0 0 0-.44-.758 11.054 11.054 0 0 0-1.747-1.884 7.15 7.15 0 0 1-.733-.72.55.55 0 0 1-.125-.262.842.842 0 0 1 .16-.268c.25-.339.505-.674.76-1.008l.03-.037c.196-.258.393-.515.587-.775l.128-.172c.492-.658 1.001-1.34 1.318-2.152.13-.289.184-.606.155-.921-.057-.416-.409-.857-1.229-.857h-.013l-1.237.013c-.61.009-1.219.016-1.828.016h-.165c-.526 0-.898.243-1.138.742l-.224.465a38.666 38.666 0 0 1-.941 1.877 6.005 6.005 0 0 1-1.219 1.626 4.18 4.18 0 0 1-.077-1.217l.008-.324c.004-.255.019-.51.033-.765l.003-.043c.024-.42.048-.837.033-1.256-.022-.605-.178-1.255-1.17-1.482a4.446 4.446 0 0 0-1.184-.117c-.739.007-1.48.036-2.215.092a1.602 1.602 0 0 0-1.174.6.932.932 0 0 0-.207.737c.075.303.381.448.622.515.326.093.365.223.383.284.055.209.088.423.097.638.02.295.025.59.013.885-.006.154-.006.31-.005.464a3.637 3.637 0 0 1-.096 1.058 1.556 1.556 0 0 1-.266-.268 9.777 9.777 0 0 1-.509-.684 16.653 16.653 0 0 1-1.565-2.93c-.263-.629-.783-.972-1.445-.931-.274.006-.547.005-.819.004l-1.239-.004-.099-.001a4.133 4.133 0 0 0-.401.007c-.638.045-.925.319-1.053.54-.12.207-.209.555.038 1.043l.505 1.009.038.076c.435.872.87 1.744 1.339 2.6a17.285 17.285 0 0 0 2.065 3.066c.45.517.925 1.011 1.425 1.481a5.857 5.857 0 0 0 1.926 1.175c.538.218 1.1.372 1.674.46.505.06 1.014.082 1.522.067h.398c.863 0 1.326-.446 1.38-1.367.022-.383.043-.744.21-1.04.035-.065.067-.093.098-.066.2.125.382.274.543.445.178.18.35.367.521.554l.018.02c.217.235.433.47.662.694.53.518 1.113.788 1.738.803z"/></svg>