<svg width="18" height="12" viewBox="0 0 18 12" fill="#2ABA90" xmlns="http://www.w3.org/2000/svg">
<path d="M17.4069 5.92437L15.7613 5.59664L14.99 3.30252C14.7071 2.4958 13.9358 1.94118 13.0616 1.94118H11.7503V0.756302C11.7503 0.327731 11.3903 0 10.9789 0H0.771353C0.334253 0 0 0.352941 0 0.756302V9.07563C0 9.5042 0.359965 9.83193 0.771353 9.83193H1.61984C1.61984 11.042 2.6226 12 3.83105 12C5.0395 12 6.04226 11.0168 6.04226 9.83193H11.956C11.956 11.042 12.9587 12 14.1672 12C15.4013 12 16.3784 11.0168 16.3784 9.83193H17.2269C17.664 9.83193 17.9982 9.47899 17.9982 9.07563V6.65546C18.0239 6.30252 17.7668 6 17.4069 5.92437ZM3.83105 10.8655C3.26539 10.8655 2.77687 10.4118 2.77687 9.83193C2.77687 9.27731 3.23968 8.79832 3.83105 8.79832C4.42242 8.79832 4.88523 9.2521 4.88523 9.83193C4.88523 10.4118 4.42242 10.8655 3.83105 10.8655ZM11.7503 5.39496V3.07563H13.0616C13.4215 3.07563 13.7558 3.30252 13.8843 3.65546L14.4757 5.39496H11.7503ZM14.1929 10.8655C13.6272 10.8655 13.1387 10.4118 13.1387 9.83193C13.1387 9.27731 13.6015 8.79832 14.1929 8.79832C14.7585 8.79832 15.2471 9.2521 15.2471 9.83193C15.2214 10.4118 14.7585 10.8655 14.1929 10.8655Z" />
</svg>
