<svg width="18" height="20" viewBox="0 0 18 20" fill="#C7C3C3" xmlns="http://www.w3.org/2000/svg">
<path d="M16.3704 4H13.4815V3C13.4815 2.20435 13.1771 1.44129 12.6353 0.87868C12.0936 0.316071 11.3588 0 10.5926 0H6.74074C5.97456 0 5.23976 0.316071 4.69799 0.87868C4.15622 1.44129 3.85185 2.20435 3.85185 3V4H0.962963C0.707569 4 0.462636 4.10536 0.282046 4.29289C0.101455 4.48043 0 4.73478 0 5C0 5.26522 0.101455 5.51957 0.282046 5.70711C0.462636 5.89464 0.707569 6 0.962963 6H1.92593V16C1.92593 17.0609 2.33174 18.0783 3.05411 18.8284C3.77647 19.5786 4.7562 20 5.77778 20H11.5556C12.5771 20 13.5569 19.5786 14.2792 18.8284C15.0016 18.0783 15.4074 17.0609 15.4074 16V6H16.3704C16.6258 6 16.8707 5.89464 17.0513 5.70711C17.2319 5.51957 17.3333 5.26522 17.3333 5C17.3333 4.73478 17.2319 4.48043 17.0513 4.29289C16.8707 4.10536 16.6258 4 16.3704 4ZM5.77778 3C5.77778 2.73478 5.87923 2.48043 6.05982 2.29289C6.24041 2.10536 6.48535 2 6.74074 2H10.5926C10.848 2 11.0929 2.10536 11.2735 2.29289C11.4541 2.48043 11.5556 2.73478 11.5556 3V4H5.77778V3ZM7.7037 9V13C7.7037 13.2652 7.60225 13.5196 7.42166 13.7071C7.24107 13.8946 6.99613 14 6.74074 14C6.48535 14 6.24041 13.8946 6.05982 13.7071C5.87923 13.5196 5.77778 13.2652 5.77778 13V9C5.77778 8.73478 5.87923 8.48043 6.05982 8.29289C6.24041 8.10536 6.48535 8 6.74074 8C6.99613 8 7.24107 8.10536 7.42166 8.29289C7.60225 8.48043 7.7037 8.73478 7.7037 9ZM11.5556 9V13C11.5556 13.2652 11.4541 13.5196 11.2735 13.7071C11.0929 13.8946 10.848 14 10.5926 14C10.3372 14 10.0923 13.8946 9.91167 13.7071C9.73108 13.5196 9.62963 13.2652 9.62963 13V9C9.62963 8.73478 9.73108 8.48043 9.91167 8.29289C10.0923 8.10536 10.3372 8 10.5926 8C10.848 8 11.0929 8.10536 11.2735 8.29289C11.4541 8.48043 11.5556 8.73478 11.5556 9Z" />
</svg>
