<svg width="44" height="44" viewBox="0 0 44 44" fill="none" xmlns="http://www.w3.org/2000/svg">
<circle cx="22" cy="22" r="22" fill="#127CCE"/>
<path d="M30.305 19.9209L28.105 21.0209C27.9711 21.0824 27.851 21.1701 27.7517 21.2789C27.6524 21.3877 27.5759 21.5154 27.5269 21.6543C27.4778 21.7932 27.4572 21.9405 27.4662 22.0876C27.4751 22.2346 27.5136 22.3783 27.5791 22.5102C27.6447 22.6421 27.7361 22.7595 27.848 22.8554C27.9598 22.9513 28.0897 23.0238 28.23 23.0685C28.3704 23.1133 28.5183 23.1294 28.665 23.1159C28.8117 23.1024 28.9542 23.0595 29.084 22.9899L30.459 22.2969L31.9 24.1999H25.3V16.4999C25.3 16.2082 25.1841 15.9284 24.9778 15.7221C24.7715 15.5158 24.4917 15.3999 24.2 15.3999C23.9082 15.3999 23.6284 15.5158 23.4222 15.7221C23.2159 15.9284 23.1 16.2082 23.1 16.4999V24.1999H18.7C18.4082 24.1999 18.1284 24.3158 17.9222 24.5221C17.7159 24.7284 17.6 25.0082 17.6 25.2999C17.6 25.5916 17.7159 25.8714 17.9222 26.0777C18.1284 26.284 18.4082 26.3999 18.7 26.3999H34.1C34.3043 26.3999 34.5045 26.343 34.6783 26.2356C34.8521 26.1282 34.9925 25.9746 35.0838 25.7918C35.1752 25.6091 35.2139 25.4046 35.1955 25.2011C35.1772 24.9977 35.1025 24.8033 34.98 24.6399L31.68 20.2399C31.5246 20.0339 31.3017 19.8891 31.0504 19.8308C30.799 19.7725 30.5352 19.8044 30.305 19.9209Z" fill="white"/>
<path d="M9.89999 26.3999H15.4C15.6917 26.3999 15.9715 26.284 16.1778 26.0777C16.3841 25.8714 16.5 25.5916 16.5 25.2999V16.4999C16.5 16.2082 16.3841 15.9284 16.1778 15.7221C15.9715 15.5158 15.6917 15.3999 15.4 15.3999C15.1082 15.3999 14.8285 15.5158 14.6222 15.7221C14.4159 15.9284 14.3 16.2082 14.3 16.4999V24.1999H9.89999C9.60825 24.1999 9.32846 24.3158 9.12217 24.5221C8.91588 24.7284 8.79999 25.0082 8.79999 25.2999C8.79999 25.5916 8.91588 25.8714 9.12217 26.0777C9.32846 26.284 9.60825 26.3999 9.89999 26.3999Z" fill="white"/>
<path d="M19.4479 17.6555C19.3105 17.7014 19.1835 17.774 19.0742 17.8692C18.9649 17.9643 18.8755 18.0801 18.8111 18.2099C18.7467 18.3397 18.7086 18.481 18.699 18.6256C18.6893 18.7702 18.7084 18.9152 18.7549 19.0525L19.8549 22.3525C19.9468 22.6296 20.1451 22.8589 20.406 22.9899C20.667 23.1209 20.9693 23.1429 21.2464 23.051C21.5236 22.9591 21.7529 22.7608 21.8839 22.4999C22.0149 22.2389 22.0368 21.9366 21.9449 21.6595L20.8449 18.3595C20.8001 18.221 20.7283 18.0929 20.6337 17.9824C20.539 17.8719 20.4233 17.7813 20.2934 17.7158C20.1635 17.6503 20.0219 17.6113 19.8767 17.6009C19.7316 17.5906 19.5859 17.6091 19.4479 17.6555Z" fill="white"/>
</svg>
