<svg width="10" height="14" viewBox="0 0 10 14" fill="none" xmlns="http://www.w3.org/2000/svg">
<path d="M8.78276 5.69644H8.42312L8.42166 3.78156C8.42021 1.69556 6.83168 -0.00155449 4.87915 1.0685e-06C2.92662 0.00155662 1.33809 1.69867 1.33955 3.78467L1.34246 5.69956H1.21433C0.543101 5.70111 -0.00145311 6.28289 2.91305e-06 7V12.7011C2.91305e-06 13.4182 0.546013 14 1.21724 14L8.78567 13.9953C9.4569 13.9953 10.0015 13.4136 10 12.6964V6.99378C10 6.27667 9.45399 5.69644 8.78276 5.69644ZM2.64706 5.69956L2.64415 3.78467C2.64415 2.46711 3.64589 1.39533 4.87915 1.39378C6.1124 1.39378 7.11561 2.46556 7.11561 3.78156L7.11852 5.69644L2.64706 5.69956Z" fill="#C4C4C4"/>
</svg>
